<svg width="48" height="48" viewBox="0 0 48 48" fill="none" xmlns="http://www.w3.org/2000/svg">
<rect width="48" height="48" rx="16" fill="#27348B"/>
<path d="M15.464 26.288C13.944 26.288 12.648 26.024 11.576 25.496C10.52 24.952 9.632 24.248 8.912 23.384L11.456 20.96C12.032 21.616 12.632 22.12 13.256 22.472C13.896 22.808 14.648 22.976 15.512 22.976C16.216 22.976 16.784 22.792 17.216 22.424C17.664 22.056 17.888 21.56 17.888 20.936V20.888C17.888 20.2 17.6 19.672 17.024 19.304C16.448 18.936 15.64 18.752 14.6 18.752H13.064L12.488 16.4L16.496 12.368H9.896V9.2H21.248V11.984L17 16.04C17.576 16.136 18.128 16.288 18.656 16.496C19.2 16.704 19.68 16.992 20.096 17.36C20.528 17.728 20.872 18.192 21.128 18.752C21.384 19.296 21.512 19.96 21.512 20.744V20.792C21.512 21.592 21.368 22.328 21.08 23C20.808 23.656 20.408 24.232 19.88 24.728C19.368 25.224 18.736 25.608 17.984 25.88C17.232 26.152 16.392 26.288 15.464 26.288ZM31.6423 26.288C30.5223 26.288 29.4983 26.072 28.5703 25.64C27.6583 25.192 26.8743 24.584 26.2183 23.816C25.5783 23.032 25.0823 22.112 24.7303 21.056C24.3783 20 24.2023 18.864 24.2023 17.648V17.6C24.2023 16.384 24.3783 15.248 24.7303 14.192C25.0983 13.136 25.6103 12.216 26.2663 11.432C26.9223 10.648 27.7063 10.032 28.6183 9.584C29.5463 9.136 30.5703 8.912 31.6903 8.912C32.7943 8.912 33.8023 9.136 34.7143 9.584C35.6423 10.016 36.4263 10.624 37.0663 11.408C37.7223 12.176 38.2263 13.088 38.5783 14.144C38.9463 15.2 39.1303 16.336 39.1303 17.552V17.6C39.1303 18.816 38.9463 19.952 38.5783 21.008C38.2263 22.064 37.7223 22.984 37.0663 23.768C36.4103 24.552 35.6183 25.168 34.6903 25.616C33.7783 26.064 32.7623 26.288 31.6423 26.288ZM31.6903 22.952C32.2503 22.952 32.7543 22.824 33.2023 22.568C33.6503 22.296 34.0343 21.928 34.3543 21.464C34.6743 20.984 34.9143 20.424 35.0743 19.784C35.2503 19.128 35.3383 18.416 35.3383 17.648V17.6C35.3383 16.832 35.2503 16.128 35.0743 15.488C34.8983 14.832 34.6423 14.264 34.3063 13.784C33.9863 13.304 33.5943 12.928 33.1303 12.656C32.6823 12.384 32.1863 12.248 31.6423 12.248C31.0823 12.248 30.5783 12.384 30.1303 12.656C29.6823 12.912 29.2983 13.28 28.9783 13.76C28.6743 14.224 28.4343 14.784 28.2583 15.44C28.0823 16.08 27.9943 16.784 27.9943 17.552V17.6C27.9943 18.368 28.0823 19.08 28.2583 19.736C28.4343 20.392 28.6823 20.96 29.0023 21.44C29.3223 21.904 29.7063 22.272 30.1543 22.544C30.6183 22.816 31.1303 22.952 31.6903 22.952Z" fill="white"/>
<path d="M16.0787 38.12C15.4307 38.12 14.8907 37.992 14.4587 37.736C14.0267 37.472 13.6707 37.148 13.3907 36.764L14.3627 35.756C14.6107 36.076 14.8627 36.324 15.1187 36.5C15.3827 36.668 15.6947 36.752 16.0547 36.752C16.4547 36.752 16.7747 36.62 17.0147 36.356C17.2627 36.084 17.3867 35.664 17.3867 35.096V29.6H18.9107V35.144C18.9107 35.648 18.8387 36.084 18.6947 36.452C18.5587 36.82 18.3667 37.128 18.1187 37.376C17.8707 37.624 17.5747 37.812 17.2307 37.94C16.8867 38.06 16.5027 38.12 16.0787 38.12ZM23.4055 34.688L20.0695 29.6H21.8215L24.1615 33.308L26.5375 29.6H28.2295L24.8935 34.652V38H23.4055V34.688ZM29.5234 29.6H30.9994V36.656H35.4154V38H29.5234V29.6Z" fill="white"/>
</svg>
