<svg width="43" height="42" viewBox="0 0 43 42" fill="none" xmlns="http://www.w3.org/2000/svg">
<g clip-path="url(#clip0_228_5)">
<path d="M41.6347 10.9179C41.1505 9.11866 39.7319 7.70042 37.933 7.21592C34.6463 6.31647 21.4996 6.31647 21.4996 6.31647C21.4996 6.31647 8.35318 6.31647 5.06649 7.18164C3.30219 7.66581 1.84902 9.11898 1.36485 10.9179C0.5 14.2043 0.5 21.0199 0.5 21.0199C0.5 21.0199 0.5 27.8698 1.36485 31.1218C1.84934 32.9208 3.26758 34.3393 5.06681 34.8238C8.38778 35.7233 21.4999 35.7233 21.4999 35.7233C21.4999 35.7233 34.6463 35.7233 37.933 34.8581C39.7322 34.3739 41.1505 32.9554 41.635 31.1565C42.4998 27.8698 42.4998 21.0545 42.4998 21.0545C42.4998 21.0545 42.5344 14.2043 41.6347 10.9179Z" fill="#FF0000"/>
<path d="M17.3135 27.3164L28.2457 21.0198L17.3135 14.7233V27.3164Z" fill="white"/>
</g>
<defs>
<clipPath id="clip0_228_5">
<rect width="42" height="42" fill="white" transform="translate(0.5)"/>
</clipPath>
</defs>
</svg>
