<svg width="201" height="64" viewBox="0 0 201 64" fill="none" xmlns="http://www.w3.org/2000/svg">
<path fill-rule="evenodd" clip-rule="evenodd" d="M56.9695 37.7644C56.9695 41.1658 56.5112 44.5656 55.5862 47.9671C54.0715 53.5909 48.9375 58.5655 42.3661 59.8539C38.3887 60.6372 34.4047 61.033 30.4191 61.033C26.4335 61.033 22.4578 60.6372 18.4804 59.8539C11.9007 58.5655 6.76676 53.5892 5.25203 47.9671C4.33531 44.5656 3.87695 41.1658 3.87695 37.7644C3.87695 34.3629 4.33531 30.9631 5.25203 27.5617C6.76676 21.9378 11.9007 16.9632 18.4804 15.6748C22.4578 14.8915 26.4417 14.4957 30.4191 14.4957C34.3965 14.4957 38.3887 14.8915 42.3661 15.6748C48.9375 16.9632 54.0715 21.9395 55.5862 27.5617C56.5112 30.9631 56.9695 34.3629 56.9695 37.7644Z" fill="#27348B"/>
<path d="M79.3717 51.0009C77.3887 51.0009 75.5865 50.6648 73.9667 49.9958C72.3451 49.3267 70.9618 48.3994 69.8135 47.217C68.6651 46.0346 67.7763 44.6452 67.1471 43.0488C66.5179 41.4524 66.2041 39.7169 66.2041 37.839V37.7661C66.2041 35.9875 66.5245 34.2934 67.1652 32.6838C67.8059 31.0742 68.7078 29.6665 69.8677 28.461C71.0292 27.2537 72.4125 26.2982 74.0209 25.5911C75.6292 24.884 77.3888 24.5312 79.2978 24.5312C80.41 24.5312 81.4203 24.6107 82.3272 24.7681C83.2341 24.927 84.0736 25.1523 84.8474 25.4437C85.6212 25.7368 86.3522 26.0962 87.0422 26.5218C87.471 26.7867 87.8932 27.0782 88.3072 27.3961C88.7278 27.7174 88.7935 28.3185 88.4535 28.7259L86.7975 30.7165C86.4853 31.0907 85.9382 31.1536 85.5505 30.8605C85.2827 30.6568 85.0117 30.4664 84.7373 30.2892C84.2297 29.9597 83.6974 29.6732 83.1404 29.4297C82.5835 29.1863 81.974 29.0041 81.3086 28.8816C80.6433 28.759 79.9122 28.6978 79.1138 28.6978C77.9522 28.6978 76.8696 28.9362 75.8675 29.4115C74.8637 29.8868 73.9929 30.5326 73.2569 31.349C72.5193 32.1655 71.9393 33.1226 71.5155 34.2189C71.0916 35.3152 70.8813 36.4744 70.8813 37.6916V37.7644C70.8813 39.081 71.0867 40.2998 71.4974 41.4209C71.9081 42.542 72.4946 43.5042 73.2569 44.309C74.0192 45.1138 74.9244 45.7481 75.9775 46.2101C77.029 46.6738 78.2085 46.9056 79.5146 46.9056C80.7238 46.9056 81.8541 46.7284 82.9055 46.3757C83.7844 46.0809 84.5681 45.7034 85.2532 45.2463C85.5029 45.079 85.6442 44.7892 85.6442 44.4862V40.2153H80.0666C79.5606 40.2153 79.1515 39.803 79.1515 39.2929V37.1898C79.1515 36.6798 79.5606 36.2674 80.0666 36.2674H89.0465C89.5525 36.2674 89.9616 36.6798 89.9616 37.1898V46.5744C89.9616 46.8543 89.84 47.1209 89.6248 47.2964C89.0876 47.732 88.5044 48.151 87.8768 48.5517C87.1145 49.0402 86.2931 49.4658 85.4109 49.8318C84.5286 50.1978 83.5791 50.4843 82.5638 50.6913C81.5485 50.8983 80.4839 51.0026 79.3717 51.0026V51.0009Z" fill="#27348B"/>
<path d="M94.3154 25.8892C94.3154 25.3791 94.7245 24.9668 95.2305 24.9668H105.633C107.23 24.9668 108.645 25.192 109.877 25.6424C111.11 26.0929 112.137 26.7205 112.96 27.5253C113.637 28.2325 114.158 29.0489 114.519 29.9762C114.883 30.9036 115.065 31.927 115.065 33.0481V33.121C115.065 35.2175 114.503 36.905 113.378 38.1851C112.502 39.182 111.431 39.9471 110.166 40.477C109.615 40.7088 109.404 41.3795 109.749 41.8697L114.868 49.1032C115.3 49.7142 114.868 50.5605 114.123 50.5605H111.079C110.782 50.5605 110.503 50.4147 110.332 50.1696L104.639 42.0303C104.468 41.7853 104.189 41.6395 103.892 41.6395H98.7807V49.6381C98.7807 50.1481 98.3717 50.5605 97.8657 50.5605H95.2338C94.7278 50.5605 94.3187 50.1481 94.3187 49.6381V25.8892H94.3154ZM105.306 37.6535C106.903 37.6535 108.171 37.2693 109.114 36.5026C110.057 35.7342 110.529 34.6926 110.529 33.376V33.3032C110.529 31.9138 110.069 30.8589 109.151 30.1402C108.231 29.4215 106.938 29.0621 105.268 29.0621H99.6909C99.1849 29.0621 98.7758 29.4745 98.7758 29.9845V36.7311C98.7758 37.2412 99.1849 37.6535 99.6909 37.6535H105.305H105.306Z" fill="#27348B"/>
<path d="M131.204 51.0009C129.245 51.0009 127.455 50.6532 125.835 49.9593C124.215 49.2638 122.825 48.3199 121.664 47.1259C120.502 45.9319 119.595 44.5359 118.943 42.9395C118.289 41.3431 117.964 39.6424 117.964 37.839V37.7661C117.964 35.9627 118.291 34.262 118.943 32.6656C119.595 31.0692 120.515 29.6665 121.7 28.461C122.884 27.2537 124.287 26.2982 125.907 25.5911C127.527 24.884 129.316 24.5312 131.276 24.5312C133.236 24.5312 135.025 24.879 136.645 25.5729C138.265 26.2667 139.655 27.2123 140.816 28.4063C141.978 29.6003 142.885 30.9963 143.537 32.5927C144.191 34.1891 144.516 35.8898 144.516 37.6932V37.7661C144.516 39.5695 144.189 41.2702 143.537 42.8666C142.885 44.463 141.965 45.8657 140.78 47.0712C139.596 48.2785 138.193 49.2356 136.571 49.9411C134.951 50.6482 133.162 51.0026 131.202 51.0026L131.204 51.0009ZM131.276 46.8311C132.533 46.8311 133.688 46.5943 134.739 46.1174C135.792 45.6421 136.693 45.0029 137.442 44.1981C138.191 43.3932 138.777 42.4427 139.201 41.3464C139.623 40.2501 139.837 39.0793 139.837 37.8356V37.7628C139.837 36.5191 139.625 35.35 139.201 34.252C138.779 33.1558 138.186 32.192 137.424 31.364C136.661 30.536 135.748 29.8835 134.685 29.4082C133.62 28.9329 132.461 28.6945 131.202 28.6945C129.944 28.6945 128.79 28.9329 127.739 29.4082C126.686 29.8835 125.786 30.5244 125.036 31.3275C124.287 32.1323 123.701 33.0829 123.277 34.1792C122.853 35.2771 122.643 36.4463 122.643 37.6899V37.7628C122.643 39.0048 122.853 40.1756 123.277 41.2735C123.699 42.3698 124.292 43.3336 125.054 44.1616C125.817 44.9913 126.729 45.6421 127.793 46.1174C128.858 46.5926 130.018 46.8311 131.276 46.8311Z" fill="#27348B"/>
<path d="M158.88 50.9629C157.236 50.9629 155.749 50.7261 154.418 50.2491C153.088 49.7739 151.952 49.0618 151.009 48.1112C150.066 47.1607 149.342 45.9849 148.833 44.5823C148.325 43.1813 148.07 41.5534 148.07 39.702V25.8892C148.07 25.3791 148.479 24.9668 148.985 24.9668H151.617C152.123 24.9668 152.532 25.3791 152.532 25.8892V39.5182C152.532 41.9061 153.101 43.7178 154.238 44.9482C155.375 46.1803 156.945 46.7947 158.953 46.7947C160.96 46.7947 162.495 46.2051 163.632 45.0211C164.768 43.8387 165.337 42.0668 165.337 39.702V25.8892C165.337 25.3791 165.746 24.9668 166.252 24.9668H168.884C169.39 24.9668 169.799 25.3791 169.799 25.8892V39.4817C169.799 41.3828 169.538 43.0538 169.019 44.4912C168.498 45.9302 167.767 47.1309 166.824 48.093C165.881 49.0568 164.737 49.7755 163.395 50.2508C162.053 50.7261 160.548 50.9645 158.879 50.9645L158.88 50.9629Z" fill="#27348B"/>
<path d="M174.478 25.8892C174.478 25.3791 174.887 24.9668 175.393 24.9668H184.489C185.964 24.9668 187.3 25.1672 188.498 25.5696C189.695 25.972 190.711 26.5516 191.545 27.3067C192.38 28.0619 193.021 28.9644 193.467 30.0127C193.914 31.0609 194.138 32.2301 194.138 33.5234V33.5963C194.138 35.0353 193.872 36.2972 193.339 37.3803C192.807 38.4649 192.083 39.3741 191.164 40.1044C190.244 40.8347 189.168 41.3911 187.936 41.7687C186.704 42.1463 185.385 42.3351 183.983 42.3351H178.941V49.6397C178.941 50.1498 178.532 50.5621 178.026 50.5621H175.394C174.888 50.5621 174.479 50.1498 174.479 49.6397V25.8908L174.478 25.8892ZM184.126 38.2397C185.818 38.2397 187.156 37.8158 188.135 36.9663C189.114 36.1167 189.603 35.0238 189.603 33.689V33.6161C189.603 32.1108 189.107 30.9765 188.115 30.2114C187.124 29.448 185.794 29.0638 184.124 29.0638H179.853C179.347 29.0638 178.938 29.4761 178.938 29.9862V37.319C178.938 37.829 179.347 38.2414 179.853 38.2414H184.124L184.126 38.2397Z" fill="#27348B"/>
<path d="M141.262 20.5102C140.218 20.5102 139.33 20.3247 138.599 19.9538C137.995 19.6474 137.471 19.2616 137.027 18.7995C136.873 18.6389 136.889 18.3772 137.05 18.2232L138.212 17.1071C138.376 16.9498 138.631 16.963 138.79 17.1236C139.099 17.4333 139.421 17.6784 139.753 17.8606C140.186 18.099 140.701 18.2183 141.294 18.2183C141.777 18.2183 142.171 18.0907 142.473 17.8357C142.776 17.5807 142.927 17.2379 142.927 16.8057V16.7726C142.927 16.2956 142.73 15.9313 142.334 15.6763C141.939 15.4213 141.382 15.2937 140.669 15.2937H139.935C139.746 15.2937 139.583 15.1646 139.537 14.9791L139.273 13.8894C139.238 13.7503 139.28 13.603 139.38 13.5003L141.972 10.8722H137.847C137.622 10.8722 137.438 10.6884 137.438 10.4598V9.09032C137.438 8.86345 137.62 8.67798 137.847 8.67798H144.828C145.053 8.67798 145.237 8.86179 145.237 9.09032V10.43C145.237 10.5426 145.191 10.6503 145.11 10.7281L142.319 13.4158C142.715 13.4821 143.096 13.5881 143.466 13.7321C143.834 13.8762 144.164 14.0749 144.455 14.3299C144.745 14.585 144.979 14.9029 145.154 15.2855C145.33 15.668 145.417 16.13 145.417 16.6732V16.7063C145.417 17.2611 145.322 17.7678 145.128 18.2265C144.936 18.6869 144.662 19.0877 144.303 19.4321C143.947 19.7766 143.51 20.0415 142.992 20.2303C142.475 20.4191 141.898 20.5135 141.261 20.5135L141.262 20.5102Z" fill="#27348B"/>
<path d="M152.375 20.5102C151.606 20.5102 150.905 20.3579 150.272 20.0532C149.64 19.7485 149.103 19.3279 148.656 18.7896C148.211 18.2531 147.867 17.6172 147.626 16.8869C147.384 16.1549 147.263 15.3683 147.263 14.5271V14.494C147.263 13.6527 147.386 12.8644 147.634 12.1341C147.882 11.4022 148.23 10.7663 148.68 10.2231C149.131 9.67992 149.673 9.25267 150.305 8.943C150.938 8.63333 151.638 8.47766 152.408 8.47766C153.179 8.47766 153.862 8.63001 154.495 8.93472C155.125 9.23942 155.664 9.66005 156.111 10.1983C156.556 10.7365 156.903 11.3707 157.149 12.101C157.398 12.833 157.521 13.6196 157.521 14.4608V14.494C157.521 15.3369 157.398 16.1235 157.149 16.8538C156.903 17.5857 156.553 18.2216 156.103 18.7648C155.651 19.308 155.111 19.7352 154.478 20.0449C153.846 20.3546 153.146 20.5102 152.377 20.5102H152.375ZM152.408 18.1835C152.793 18.1835 153.139 18.0925 153.446 17.9103C153.755 17.7281 154.018 17.4748 154.238 17.1485C154.458 16.8223 154.626 16.4365 154.741 15.991C154.856 15.5439 154.915 15.057 154.915 14.5271V14.494C154.915 13.964 154.854 13.4772 154.734 13.03C154.613 12.5829 154.44 12.1937 154.215 11.8642C153.99 11.533 153.721 11.2747 153.407 11.0859C153.093 10.8988 152.75 10.8044 152.377 10.8044C152.004 10.8044 151.646 10.8954 151.339 11.0776C151.03 11.2598 150.77 11.5131 150.555 11.8394C150.34 12.1656 150.172 12.5514 150.052 12.9969C149.931 13.444 149.87 13.9326 149.87 14.4608V14.494C149.87 15.0239 149.931 15.5141 150.052 15.9661C150.172 16.4182 150.343 16.8074 150.563 17.132C150.783 17.4566 151.05 17.7132 151.362 17.9004C151.675 18.0875 152.024 18.1819 152.41 18.1819L152.408 18.1835Z" fill="#27348B"/>
<path d="M167.363 20.4771C166.462 20.4771 165.705 20.3048 165.095 19.962C164.607 19.6871 164.187 19.3692 163.837 19.0098C163.689 18.8575 163.696 18.6107 163.837 18.4534L164.897 17.2644C165.054 17.0872 165.32 17.0889 165.491 17.2528C165.721 17.4714 165.951 17.6519 166.183 17.7943C166.518 17.9997 166.889 18.1023 167.297 18.1023C167.78 18.1023 168.159 17.95 168.434 17.6453C168.708 17.3406 168.846 16.8504 168.846 16.1747V9.09032C168.846 8.86345 169.028 8.67798 169.255 8.67798H171.043C171.268 8.67798 171.452 8.86179 171.452 9.09032V16.2907C171.452 16.9895 171.358 17.5923 171.171 18.1023C170.983 18.6124 170.716 19.0446 170.362 19.399C170.011 19.7534 169.579 20.0217 169.068 20.2055C168.557 20.3876 167.987 20.4804 167.361 20.4804L167.363 20.4771Z" fill="#27348B"/>
<path d="M177.223 15.6233L173.251 9.31058C173.078 9.03568 173.274 8.67798 173.596 8.67798H175.587C175.731 8.67798 175.865 8.75416 175.938 8.88001L178.574 13.3496L181.256 8.87835C181.33 8.75415 181.463 8.67964 181.606 8.67964H183.515C183.839 8.67964 184.034 9.03899 183.86 9.31389L179.891 15.5753C179.848 15.6415 179.827 15.7193 179.827 15.7972V19.9008C179.827 20.1276 179.645 20.3131 179.418 20.3131H177.696C177.471 20.3131 177.287 20.1293 177.287 19.9008V15.8452C177.287 15.7674 177.266 15.6912 177.223 15.625V15.6233Z" fill="#27348B"/>
<path d="M186.254 8.67639H187.976C188.201 8.67639 188.385 8.86021 188.385 9.08874V17.9848H193.73C193.956 17.9848 194.14 18.1687 194.14 18.3972V19.9008C194.14 20.1277 193.957 20.3132 193.73 20.3132H186.254C186.029 20.3132 185.845 20.1294 185.845 19.9008V9.09039C185.845 8.86352 186.027 8.67805 186.254 8.67805V8.67639Z" fill="#27348B"/>
<path d="M16.5026 26.2269C16.5026 25.5314 17.0628 24.9667 17.7528 24.9667H27.8926C30.8186 24.9667 33.0315 25.7218 34.5315 27.2338C35.6683 28.3797 36.2367 29.7939 36.2367 31.4748V31.5477C36.2367 32.3276 36.1332 33.0165 35.9279 33.6144C35.7225 34.2122 35.4564 34.7355 35.1295 35.1859C34.8025 35.6364 34.4165 36.0338 33.9679 36.3733C33.5211 36.7144 33.066 37.0075 32.6077 37.251C33.3568 37.5192 34.0402 37.8306 34.6563 38.1833C35.2724 38.5377 35.8047 38.9583 36.2532 39.4452C36.7 39.9321 37.045 40.5067 37.2865 41.1641C37.528 41.8232 37.6496 42.59 37.6496 43.4676V43.5405C37.6496 44.6865 37.4262 45.6983 36.9793 46.576C36.5325 47.4537 35.8967 48.1856 35.0752 48.7702C34.2522 49.3548 33.2615 49.8002 32.1 50.1049C30.9385 50.4096 29.6571 50.562 28.2541 50.562H17.7512C17.0612 50.562 16.501 49.9973 16.501 49.3018V26.2252L16.5026 26.2269ZM31.7747 32.2051C31.7747 31.1817 31.3936 30.3835 30.6313 29.8105C29.869 29.2375 28.7633 28.951 27.3127 28.951H22.1409C21.4509 28.951 20.8907 29.5157 20.8907 30.2113V34.4921C20.8907 35.1876 21.4509 35.7523 22.1409 35.7523H26.9858C28.4364 35.7523 29.5979 35.4658 30.4686 34.8928C31.3394 34.3198 31.7747 33.4488 31.7747 32.278V32.2051ZM33.1892 42.9924C33.1892 41.8961 32.7588 41.0482 31.9012 40.4504C31.042 39.8526 29.731 39.5545 27.9649 39.5545H22.1409C21.4509 39.5545 20.8907 40.1192 20.8907 40.8147V45.3141C20.8907 46.0096 21.4509 46.5743 22.1409 46.5743H28.2918C29.8148 46.5743 31.0124 46.2829 31.8831 45.6966C32.7539 45.1121 33.1892 44.2344 33.1892 43.0636V42.9907V42.9924Z" fill="white"/>
<path d="M41.1321 24.9667H43.0936C43.7836 24.9667 44.3439 25.5314 44.3439 26.2269V49.3034C44.3439 49.9989 43.7836 50.5637 43.0936 50.5637H41.1321C40.4421 50.5637 39.8818 49.9989 39.8818 49.3034V26.2269C39.8818 25.5314 40.4421 24.9667 41.1321 24.9667Z" fill="white"/>
</svg>
